<svg width="18" height="19" viewBox="0 0 18 19" fill="none" xmlns="http://www.w3.org/2000/svg">
<path d="M15.75 6.01478V12.9853C15.75 13.0656 15.7286 13.1445 15.6878 13.2138C15.6471 13.283 15.5885 13.3401 15.5182 13.379L9.21825 16.8785C9.15147 16.9156 9.07636 16.935 9 16.935C8.92364 16.935 8.84853 16.9156 8.78175 16.8785L2.48175 13.379C2.41149 13.3401 2.35294 13.283 2.31219 13.2138C2.27143 13.1445 2.24996 13.0656 2.25 12.9853V6.01478C2.25009 5.93457 2.27163 5.85583 2.31238 5.78673C2.35312 5.71764 2.4116 5.66069 2.48175 5.62178L8.78175 2.12153C8.84853 2.0845 8.92364 2.06506 9 2.06506C9.07636 2.06506 9.15147 2.0845 9.21825 2.12153L15.5182 5.62178C15.5884 5.66069 15.6469 5.71764 15.6876 5.78673C15.7284 5.85583 15.7499 5.93457 15.75 6.01478Z" stroke="#00FFC4" stroke-width="1.3" stroke-linecap="round" stroke-linejoin="round"/>
<path d="M2.646 5.9705L8.781 9.3785C8.84787 9.41567 8.92311 9.43517 8.99962 9.43517C9.07613 9.43517 9.15137 9.41567 9.21825 9.3785L15.375 5.9585M9 16.25V9.5" stroke="#00FFC4" stroke-width="1.3" stroke-linecap="round" stroke-linejoin="round"/>
</svg>
