<svg width="14" height="14" viewBox="0 0 14 14" fill="none" xmlns="http://www.w3.org/2000/svg">
<path d="M7.00004 1.66671C4.05452 1.66671 1.66671 4.05452 1.66671 7.00004C1.66671 9.94556 4.05452 12.3334 7.00004 12.3334C9.94556 12.3334 12.3334 9.94556 12.3334 7.00004C12.3334 4.05452 9.94556 1.66671 7.00004 1.66671ZM0.333374 7.00004C0.333374 3.31814 3.31814 0.333374 7.00004 0.333374C10.6819 0.333374 13.6667 3.31814 13.6667 7.00004C13.6667 10.6819 10.6819 13.6667 7.00004 13.6667C3.31814 13.6667 0.333374 10.6819 0.333374 7.00004ZM4.1953 4.1953C4.45565 3.93495 4.87776 3.93495 5.13811 4.1953L7.00004 6.05723L8.86197 4.1953C9.12232 3.93495 9.54443 3.93495 9.80478 4.1953C10.0651 4.45565 10.0651 4.87776 9.80478 5.13811L7.94285 7.00004L9.80478 8.86197C10.0651 9.12232 10.0651 9.54443 9.80478 9.80478C9.54443 10.0651 9.12232 10.0651 8.86197 9.80478L7.00004 7.94285L5.13811 9.80478C4.87776 10.0651 4.45565 10.0651 4.1953 9.80478C3.93495 9.54443 3.93495 9.12232 4.1953 8.86197L6.05723 7.00004L4.1953 5.13811C3.93495 4.87776 3.93495 4.45565 4.1953 4.1953Z" fill="#9B0000"/>
</svg>
