<svg width="49" height="49" viewBox="0 0 49 49" fill="none" xmlns="http://www.w3.org/2000/svg">
<circle cx="24.5" cy="24.5" r="24" fill="#EDF0F4"/>
<path xmlns="http://www.w3.org/2000/svg" d="M4.98876 15.4501V10.4806C6.78652 10.3957 8.1573 10.0559 9.10112 9.46122C10.0449 8.86657 10.5169 7.96399 10.5169 6.75346V6.30748C10.5169 5.39428 10.2247 4.69344 9.64045 4.20499C9.05618 3.69529 8.29213 3.44044 7.34831 3.44044C6.33708 3.44044 5.50562 3.73777 4.85393 4.33241C4.22472 4.90582 3.79775 5.62788 3.57303 6.49861L0 5.12881C0.269663 4.25808 0.707865 3.42982 1.31461 2.64404C1.92135 1.85826 2.73034 1.22114 3.74157 0.732687C4.77528 0.244229 6.03371 0 7.51685 0C9.02247 0 10.3371 0.265466 11.4607 0.796398C12.5843 1.32733 13.4494 2.07064 14.0562 3.02632C14.6854 3.98199 15 5.09695 15 6.37119C15 7.62419 14.7191 8.69668 14.1573 9.58864C13.5955 10.4806 12.8539 11.1921 11.9326 11.723C11.0112 12.2539 10.0337 12.6043 9 12.7742V15.4501H4.98876ZM7.04494 23C6.10112 23 5.41573 22.7876 4.98876 22.3629C4.5618 21.9381 4.34831 21.4072 4.34831 20.7701V20.133C4.34831 19.4958 4.5618 18.9649 4.98876 18.5402C5.41573 18.1154 6.10112 17.903 7.04494 17.903C7.98876 17.903 8.67416 18.1154 9.10112 18.5402C9.52809 18.9649 9.74157 19.4958 9.74157 20.133V20.7701C9.74157 21.4072 9.52809 21.9381 9.10112 22.3629C8.67416 22.7876 7.98876 23 7.04494 23Z" fill="#cccccc" transform="translate(18, 14)"/>
</svg>
