<svg width="20" height="10" fill="none"><path d="M9.664 2.602 4.808 6.973A4 4 0 0 1 2.132 8H0v2h20V8h-1.465a4 4 0 0 1-2.676-1.027l-4.857-4.37a1 1 0 0 0-1.338 0Z"/><path d="M8.995 1.859a2 2 0 0 1 2.676 0l4.857 4.37A3 3 0 0 0 18.535 7H15.89l-4.888-4.398a1 1 0 0 0-1.338 0L4.777 7H2.132a3 3 0 0 0 2.007-.77l4.856-4.371Z"/><path d="M10.333 3.345 5.477 7.716A5 5 0 0 1 2.132 9H0V8h2.132a4 4 0 0 0 2.676-1.027l4.856-4.37a1 1 0 0 1 1.338 0l4.857 4.37A4 4 0 0 0 18.535 8H20v1h-1.465a5 5 0 0 1-3.345-1.284l-4.857-4.37Z"/></svg>