<svg width="16" height="16" viewBox="0 0 16 16" fill="none" xmlns="http://www.w3.org/2000/svg">
<path d="M12.8668 5.85375L8.32169 10.8538C8.27948 10.9002 8.22935 10.9371 8.17417 10.9623C8.119 10.9874 8.05985 11.0004 8.00012 11.0004C7.94039 11.0004 7.88125 10.9874 7.82607 10.9623C7.77089 10.9371 7.72077 10.9002 7.67855 10.8538L3.13343 5.85375C3.06979 5.78382 3.02644 5.6947 3.00888 5.59765C2.99131 5.50061 3.00031 5.40002 3.03474 5.3086C3.06917 5.21719 3.12748 5.13908 3.20229 5.08414C3.2771 5.0292 3.36505 4.99992 3.45499 5H12.5453C12.6352 4.99992 12.7231 5.0292 12.798 5.08414C12.8728 5.13908 12.9311 5.21719 12.9655 5.3086C12.9999 5.40002 13.0089 5.50061 12.9914 5.59765C12.9738 5.6947 12.9305 5.78382 12.8668 5.85375Z" fill="#828B8E"/>
</svg>
