<svg width="20" height="19" viewBox="0 0 20 19" fill="none" xmlns="http://www.w3.org/2000/svg">
<path d="M12 16.5H13V18.5H0V16.5H1V1.5C1 1.23478 1.10536 0.98043 1.29289 0.792893C1.48043 0.605357 1.73478 0.5 2 0.5H11C11.2652 0.5 11.5196 0.605357 11.7071 0.792893C11.8946 0.98043 12 1.23478 12 1.5V9.5H14C14.5304 9.5 15.0391 9.71071 15.4142 10.0858C15.7893 10.4609 16 10.9696 16 11.5V15.5C16 15.7652 16.1054 16.0196 16.2929 16.2071C16.4804 16.3946 16.7348 16.5 17 16.5C17.2652 16.5 17.5196 16.3946 17.7071 16.2071C17.8946 16.0196 18 15.7652 18 15.5V8.5H16C15.7348 8.5 15.4804 8.39464 15.2929 8.20711C15.1054 8.01957 15 7.76522 15 7.5V3.914L13.343 2.257L14.757 0.843L19.707 5.793C19.8 5.88574 19.8738 5.99594 19.924 6.11727C19.9743 6.2386 20.0001 6.36866 20 6.5V15.5C20 16.2956 19.6839 17.0587 19.1213 17.6213C18.5587 18.1839 17.7956 18.5 17 18.5C16.2044 18.5 15.4413 18.1839 14.8787 17.6213C14.3161 17.0587 14 16.2956 14 15.5V11.5H12V16.5ZM3 16.5H10V10.5H3V16.5ZM3 2.5V8.5H10V2.5H3Z" fill="#0D0D0D"/>
</svg>
