<svg width="14" height="14" viewBox="0 0 14 14" fill="none" xmlns="http://www.w3.org/2000/svg">
<path fill-rule="evenodd" clip-rule="evenodd" d="M6.99992 0.333328C3.31992 0.333328 0.333252 3.31999 0.333252 6.99999C0.333252 10.68 3.31992 13.6667 6.99992 13.6667C10.6799 13.6667 13.6666 10.68 13.6666 6.99999C13.6666 3.31999 10.6799 0.333328 6.99992 0.333328ZM6.33325 11.6667V10.3333H7.66659V11.6667H6.33325ZM8.44658 7.11333L9.04659 6.49999C9.42659 6.11999 9.66659 5.58666 9.66659 4.99999C9.66659 3.52666 8.47325 2.33333 6.99992 2.33333C5.52659 2.33333 4.33325 3.52666 4.33325 4.99999H5.66659C5.66659 4.26666 6.26658 3.66666 6.99992 3.66666C7.73325 3.66666 8.33325 4.26666 8.33325 4.99999C8.33325 5.36666 8.18658 5.69999 7.93992 5.93999L7.11325 6.77999C6.63325 7.26666 6.33325 7.93333 6.33325 8.66666V8.99999H7.66659C7.66659 7.99999 7.96659 7.59999 8.44658 7.11333Z" fill="#838897"/>
</svg>
