<svg width="20" height="20" viewBox="0 0 20 20" fill="none" xmlns="http://www.w3.org/2000/svg">
<path d="M5.67266 6.48907C5.62529 6.37488 5.61284 6.2492 5.6369 6.12794C5.66096 6.00668 5.72044 5.89527 5.80782 5.80782L9.55782 2.05782C9.61586 1.99971 9.68479 1.95361 9.76067 1.92215C9.83654 1.8907 9.91787 1.87451 10 1.87451C10.0821 1.87451 10.1635 1.8907 10.2393 1.92215C10.3152 1.95361 10.3841 1.99971 10.4422 2.05782L14.1922 5.80782C14.2797 5.89523 14.3393 6.00663 14.3635 6.12794C14.3876 6.24924 14.3752 6.37498 14.3279 6.48925C14.2805 6.60351 14.2004 6.70116 14.0975 6.76983C13.9946 6.8385 13.8737 6.8751 13.75 6.875H6.25C6.12639 6.87498 6.00556 6.8383 5.9028 6.7696C5.80003 6.70091 5.71994 6.60328 5.67266 6.48907ZM13.75 13.125H6.25C6.12632 13.1249 6.00539 13.1615 5.90252 13.2302C5.79964 13.2988 5.71946 13.3965 5.67211 13.5108C5.62477 13.625 5.61239 13.7508 5.63655 13.8721C5.6607 13.9934 5.72031 14.1048 5.80782 14.1922L9.55782 17.9422C9.61586 18.0003 9.68479 18.0464 9.76067 18.0779C9.83654 18.1093 9.91787 18.1255 10 18.1255C10.0821 18.1255 10.1635 18.1093 10.2393 18.0779C10.3152 18.0464 10.3841 18.0003 10.4422 17.9422L14.1922 14.1922C14.2797 14.1048 14.3393 13.9934 14.3635 13.8721C14.3876 13.7508 14.3752 13.625 14.3279 13.5108C14.2805 13.3965 14.2004 13.2988 14.0975 13.2302C13.9946 13.1615 13.8737 13.1249 13.75 13.125Z" fill="#00FFC4"/>
</svg>
