<svg width="16" height="17" viewBox="0 0 16 17" fill="none" xmlns="http://www.w3.org/2000/svg">
<path d="M8.00016 3.16671C5.05464 3.16671 2.66683 5.55452 2.66683 8.50004C2.66683 11.4456 5.05464 13.8334 8.00016 13.8334C10.9457 13.8334 13.3335 11.4456 13.3335 8.50004C13.3335 5.55452 10.9457 3.16671 8.00016 3.16671ZM1.3335 8.50004C1.3335 4.81814 4.31826 1.83337 8.00016 1.83337C11.6821 1.83337 14.6668 4.81814 14.6668 8.50004C14.6668 12.1819 11.6821 15.1667 8.00016 15.1667C4.31826 15.1667 1.3335 12.1819 1.3335 8.50004ZM5.19543 5.6953C5.45577 5.43495 5.87788 5.43495 6.13823 5.6953L8.00016 7.55723L9.86209 5.6953C10.1224 5.43495 10.5446 5.43495 10.8049 5.6953C11.0653 5.95565 11.0653 6.37776 10.8049 6.63811L8.94297 8.50004L10.8049 10.362C11.0653 10.6223 11.0653 11.0444 10.8049 11.3048C10.5446 11.5651 10.1224 11.5651 9.86209 11.3048L8.00016 9.44285L6.13823 11.3048C5.87788 11.5651 5.45577 11.5651 5.19543 11.3048C4.93508 11.0444 4.93508 10.6223 5.19543 10.362L7.05735 8.50004L5.19543 6.63811C4.93508 6.37776 4.93508 5.95565 5.19543 5.6953Z" fill="#FF3757"/>
</svg>
