<svg width="14" height="14" viewBox="0 0 14 14" fill="none" xmlns="http://www.w3.org/2000/svg">
<path d="M7 0C3.13402 0 0 3.13402 0 7C0 10.866 3.13402 14 7 14C10.866 14 14 10.866 14 7C14 3.13402 10.866 0 7 0ZM7 1.521C10.026 1.521 12.4782 3.97479 12.4782 7C12.4782 10.0252 10.026 12.4782 7 12.4782C3.97402 12.4782 1.52185 10.0252 1.52185 7C1.52186 3.97479 3.97402 1.521 7 1.521ZM9.68225 3.67603L5.62512 7.73401L4.3092 6.41809L3.01806 7.70838L4.33398 9.02429L5.63366 10.324L6.92396 9.03284L10.9819 4.97571L9.68225 3.67603Z" fill="#00FFC4"/>
</svg>
