<svg width="12" height="12" viewBox="0 0 12 12" fill="none" xmlns="http://www.w3.org/2000/svg">
<path d="M1.33325 4.86768V6.86501C1.33325 7.94593 1.33325 8.48668 1.46217 8.92768C1.76959 9.97768 2.59092 10.8037 3.64092 11.1712C3.99092 11.2738 4.33859 11.3829 5.00825 11.4815C5.39911 11.5373 5.79672 11.5243 6.18309 11.443C6.35984 11.4068 6.50392 11.3759 6.62525 11.3497C6.91108 11.2878 7.19692 11.2138 7.45942 11.0848C7.75575 10.9402 7.98617 10.7897 8.31984 10.5406C8.51934 10.3918 8.70192 10.2104 9.0665 9.84759L10.9606 7.96343C11.0523 7.87234 11.1251 7.76401 11.1748 7.64467C11.2244 7.52534 11.25 7.39735 11.25 7.26809C11.25 7.13883 11.2244 7.01085 11.1748 6.89151C11.1251 6.77218 11.0523 6.66385 10.9606 6.57276C10.7748 6.38824 10.5236 6.28468 10.2618 6.28468C9.99991 6.28468 9.74869 6.38824 9.56292 6.57276L8.25042 7.87884V4.86768" stroke="#0E1217" stroke-width="0.875" stroke-linecap="round" stroke-linejoin="round"/>
<path d="M6.52083 3.58043V2.47093C6.52083 1.99551 6.90817 1.61051 7.38592 1.61051C7.86309 1.61051 8.25042 1.99551 8.25042 2.47093V5.0516M4.79184 4.86551V1.30426C4.79184 0.828848 5.17917 0.443848 5.65634 0.443848C6.13409 0.443848 6.52083 0.828848 6.52083 1.30426V4.86785M3.06225 3.2701V4.86785V1.89051C3.06811 1.66505 3.16179 1.45078 3.32333 1.29338C3.48487 1.13598 3.7015 1.04789 3.92704 1.04789C4.15259 1.04789 4.36921 1.13598 4.53076 1.29338C4.6923 1.45078 4.78598 1.66505 4.79184 1.89051V4.86785M3.06225 4.16493V3.6376C3.06225 3.16218 2.6755 2.77718 2.19775 2.77718C1.72059 2.77718 1.33325 3.16218 1.33325 3.6376V5.23476" stroke="#0E1217" stroke-width="0.875" stroke-linecap="round" stroke-linejoin="round"/>
</svg>
