<svg width="14" height="14" viewBox="0 0 14 14" fill="none" xmlns="http://www.w3.org/2000/svg">
<path fill-rule="evenodd" clip-rule="evenodd" d="M8.11717 0.0371595C8.21321 0.0783668 8.29265 0.15062 8.34274 0.242343C8.39283 0.334066 8.41068 0.439949 8.39344 0.543026L7.55064 5.59983H11.6666C11.7533 5.59983 11.8383 5.62396 11.912 5.66952C11.9857 5.71509 12.0453 5.78028 12.084 5.85779C12.1228 5.93531 12.1392 6.02209 12.1314 6.1084C12.1236 6.19472 12.092 6.27716 12.04 6.34649L6.43997 13.8132C6.37722 13.8967 6.28827 13.9567 6.18736 13.9836C6.08645 14.0106 5.97941 14.0029 5.88338 13.9619C5.78734 13.9208 5.70787 13.8487 5.65767 13.7571C5.60747 13.6655 5.58946 13.5597 5.6065 13.4566L6.4493 8.39983H2.33331C2.24664 8.39983 2.16169 8.37569 2.08796 8.33013C2.01424 8.28457 1.95466 8.21938 1.91591 8.14186C1.87715 8.06434 1.86074 7.97757 1.86852 7.89125C1.87631 7.80493 1.90797 7.72249 1.95997 7.65316L7.55997 0.186493C7.62267 0.102749 7.71169 0.0425011 7.81273 0.0154197C7.91378 -0.0116617 8.021 -0.00400539 8.11717 0.0371595ZM3.26664 7.46649H6.99997C7.06771 7.46652 7.13463 7.4813 7.19609 7.5098C7.25754 7.5383 7.31206 7.57984 7.35584 7.63153C7.39963 7.68322 7.43163 7.74382 7.44964 7.80912C7.46764 7.87443 7.47121 7.94287 7.4601 8.00969L6.8413 11.7225L10.7333 6.53316H6.99997C6.93223 6.53313 6.86531 6.51835 6.80385 6.48985C6.7424 6.46135 6.68789 6.41981 6.6441 6.36812C6.60032 6.31644 6.56831 6.25583 6.55031 6.19053C6.5323 6.12523 6.52873 6.05678 6.53984 5.98996L7.15864 2.27716L3.26664 7.46649Z" fill="#00FFC4"/>
</svg>
