<svg width="14" height="14" viewBox="0 0 14 14" fill="none" xmlns="http://www.w3.org/2000/svg">
<path d="M7.00002 9.9165C7.1653 9.9165 7.30394 9.8605 7.41594 9.7485C7.52794 9.6365 7.58374 9.49806 7.58335 9.33317V6.99984C7.58335 6.83456 7.52735 6.69612 7.41535 6.5845C7.30335 6.47289 7.16491 6.41689 7.00002 6.4165C6.83513 6.41611 6.69669 6.47212 6.58469 6.5845C6.47269 6.69689 6.41669 6.83534 6.41669 6.99984V9.33317C6.41669 9.49845 6.47269 9.63709 6.58469 9.74909C6.69669 9.86109 6.83513 9.91689 7.00002 9.9165ZM7.00002 5.24984C7.1653 5.24984 7.30394 5.19384 7.41594 5.08184C7.52794 4.96984 7.58374 4.83139 7.58335 4.6665C7.58296 4.50161 7.52697 4.36317 7.41535 4.25117C7.30374 4.13917 7.1653 4.08317 7.00002 4.08317C6.83474 4.08317 6.6963 4.13917 6.58469 4.25117C6.47308 4.36317 6.41708 4.50161 6.41669 4.6665C6.4163 4.83139 6.4723 4.97003 6.58469 5.08242C6.69708 5.19481 6.83552 5.25061 7.00002 5.24984ZM7.00002 12.8332C6.19308 12.8332 5.43474 12.6799 4.72502 12.3735C4.0153 12.0671 3.39794 11.6515 2.87294 11.1269C2.34794 10.6023 1.93241 9.98495 1.62635 9.27484C1.3203 8.56473 1.16708 7.80639 1.16669 6.99984C1.1663 6.19328 1.31952 5.43495 1.62635 4.72484C1.93319 4.01473 2.34872 3.39737 2.87294 2.87275C3.39716 2.34814 4.01452 1.93262 4.72502 1.62617C5.43552 1.31973 6.19385 1.1665 7.00002 1.1665C7.80619 1.1665 8.56452 1.31973 9.27502 1.62617C9.98552 1.93262 10.6029 2.34814 11.1271 2.87275C11.6513 3.39737 12.067 4.01473 12.3743 4.72484C12.6815 5.43495 12.8345 6.19328 12.8334 6.99984C12.8322 7.80639 12.679 8.56473 12.3737 9.27484C12.0684 9.98495 11.6529 10.6023 11.1271 11.1269C10.6013 11.6515 9.98396 12.0673 9.27502 12.3741C8.56608 12.6809 7.80774 12.8339 7.00002 12.8332ZM7.00002 11.6665C8.3028 11.6665 9.40627 11.2144 10.3104 10.3103C11.2146 9.40609 11.6667 8.30261 11.6667 6.99984C11.6667 5.69706 11.2146 4.59359 10.3104 3.68942C9.40627 2.78525 8.3028 2.33317 7.00002 2.33317C5.69724 2.33317 4.59377 2.78525 3.6896 3.68942C2.78544 4.59359 2.33335 5.69706 2.33335 6.99984C2.33335 8.30261 2.78544 9.40609 3.6896 10.3103C4.59377 11.2144 5.69724 11.6665 7.00002 11.6665Z" fill="#00FFC4"/>
</svg>
