<svg width="24" height="17" viewBox="0 0 24 17" fill="none" xmlns="http://www.w3.org/2000/svg">
<path d="M20.3044 2.59228C19.9799 2.1022 19.5205 1.72732 18.9757 1.5094C17.793 1.03516 16.7759 0.718364 15.8658 0.539804C15.2274 0.415004 14.5953 0.728924 14.2914 1.32028L14.2156 1.46812C13.5417 1.39372 12.826 1.36876 12.0109 1.3894C11.1753 1.36924 10.4572 1.39372 9.78231 1.46812L9.70695 1.32028C9.40311 0.728924 8.76999 0.415484 8.13303 0.540284C7.22295 0.718364 6.20535 1.03516 5.02311 1.50988C4.47879 1.7278 4.01943 2.1022 3.69447 2.59276C1.42839 6.01564 0.540391 9.7078 0.980071 13.8809C0.995431 14.0273 1.07703 14.1584 1.20135 14.2366C2.94471 15.3358 4.45335 16.0884 5.94903 16.6059C6.57447 16.8243 7.26807 16.58 7.63719 16.016L8.29527 15.0075C7.77111 14.8097 7.25943 14.5755 6.76887 14.2956C6.53895 14.1646 6.45879 13.8713 6.58983 13.6414C6.72087 13.4105 7.01415 13.3294 7.24455 13.4624C8.70423 14.2947 10.3545 14.7348 12.0167 14.7348C13.6789 14.7348 15.3292 14.2947 16.7889 13.4624C17.0188 13.3294 17.3121 13.4105 17.4436 13.6414C17.5746 13.8713 17.4945 14.1646 17.2645 14.2956C16.7577 14.5851 16.2277 14.826 15.6849 15.0272L16.3621 16.0361C16.641 16.4513 17.1013 16.6875 17.5756 16.6875C17.7301 16.6875 17.8861 16.662 18.0378 16.6102C19.5378 16.0923 21.0493 15.3387 22.7965 14.2371C22.9209 14.1588 23.0025 14.0273 23.0178 13.8814C23.4585 9.7078 22.5705 6.01516 20.3044 2.59228ZM8.93319 10.9121C8.00871 10.9121 7.24791 9.9382 7.24791 8.75453C7.24791 7.57085 8.00871 6.59692 8.93319 6.59692C9.85767 6.59692 10.6185 7.57085 10.6185 8.75453C10.6185 9.9382 9.85767 10.9121 8.93319 10.9121ZM15.1698 10.8996C14.254 10.8996 13.5004 9.91996 13.5004 8.72908C13.5004 7.5382 14.254 6.55852 15.1698 6.55852C16.0857 6.55852 16.8393 7.5382 16.8393 8.72908C16.8393 9.91996 16.0857 10.8996 15.1698 10.8996Z" fill="black"/>
</svg>
