<svg width="24" height="23" viewBox="0 0 24 23" fill="none" xmlns="http://www.w3.org/2000/svg">
<path d="M8.54061 22.4812C8.88189 22.3344 9.12093 21.995 9.12093 21.6V19.008C9.12093 18.9134 9.12861 18.815 9.14061 18.7152C9.13389 18.7171 9.12765 18.7185 9.12093 18.72C9.12093 18.72 7.68093 18.72 7.39293 18.72C6.67293 18.72 6.04894 18.432 5.76094 17.856C5.42494 17.232 5.28094 16.176 4.41694 15.6C4.27294 15.504 4.36894 15.36 4.65694 15.36C4.94494 15.408 5.56894 15.792 5.95294 16.32C6.38493 16.848 6.81694 17.28 7.58493 17.28C8.77869 17.28 9.41853 17.22 9.80349 17.0136C10.2518 16.3468 10.8725 15.84 11.5209 15.84V15.828C8.80029 15.7406 7.06221 14.8363 6.25293 13.44C4.49374 13.4601 2.96206 13.6344 2.08798 13.7793C2.06014 13.6224 2.03614 13.4644 2.0155 13.3056C2.87806 13.1635 4.34014 12.995 6.0211 12.9628C5.96734 12.8304 5.92078 12.6945 5.88142 12.5553C4.19614 12.4699 2.74174 12.5366 1.95166 12.6019C1.94206 12.4425 1.9291 12.2836 1.92718 12.1224C2.7187 12.0576 4.13374 11.9928 5.77582 12.0691C5.7379 11.8291 5.71342 11.5838 5.71342 11.3284C5.71342 10.5124 6.00142 9.64844 6.52941 8.92844C6.28941 8.11244 5.95341 6.38444 6.62541 5.76044C7.92141 5.76044 8.83341 6.38444 9.26541 6.76844C10.0809 6.43196 10.9929 6.23996 12.0009 6.23996C13.0089 6.23996 13.9209 6.43196 14.6889 6.76796C15.1209 6.38396 16.0329 5.75996 17.3289 5.75996C18.0489 6.43196 17.6649 8.15996 17.4249 8.92796C17.9529 9.64796 18.2409 10.464 18.1929 11.328C18.1929 11.5603 18.1713 11.7844 18.1401 12.0043C19.8196 11.9217 21.2731 11.988 22.078 12.0532C22.0771 12.215 22.0622 12.3729 22.0536 12.5328C21.2515 12.4665 19.7616 12.3984 18.0413 12.49C17.9985 12.6513 17.9467 12.8083 17.8853 12.9604C19.5873 12.9825 21.0844 13.1472 21.9883 13.2912C21.9676 13.4505 21.9436 13.6084 21.9158 13.7649C20.998 13.618 19.4337 13.4462 17.6539 13.4376C16.8547 14.819 15.1483 15.72 12.4809 15.8251V15.84C13.7289 15.84 14.8809 17.712 14.8809 19.008V21.6C14.8809 21.995 15.12 22.3344 15.4613 22.4812C19.8585 21.0259 23.0409 16.8787 23.0409 12C23.0409 5.9126 18.0888 0.959961 12.0009 0.959961C5.9131 0.959961 0.960938 5.9126 0.960938 12C0.960938 16.8787 4.14334 21.0259 8.54061 22.4812Z" fill="black"/>
</svg>
