<svg width="24" height="14" viewBox="0 0 24 14" fill="none" xmlns="http://www.w3.org/2000/svg">
<path d="M7.19996 13.2398C10.6462 13.2398 13.44 10.446 13.44 6.99976C13.44 3.55351 10.6462 0.759766 7.19996 0.759766C3.7537 0.759766 0.959961 3.55351 0.959961 6.99976C0.959961 10.446 3.7537 13.2398 7.19996 13.2398Z" fill="black"/>
<path d="M17.04 1.24023C15.3168 1.24023 13.92 3.81927 13.92 7.00023C13.92 7.59687 13.969 8.17192 14.0602 8.71287C14.1816 9.43431 14.378 10.0948 14.6324 10.6641C14.7596 10.9487 14.9012 11.2103 15.0552 11.445C15.3634 11.9145 15.7215 12.2769 16.1122 12.5015C16.4055 12.6695 16.717 12.7602 17.04 12.7602C17.3631 12.7602 17.6746 12.6695 17.9679 12.5015C18.3586 12.2769 18.7167 11.9145 19.0248 11.445C19.1789 11.2103 19.3205 10.9487 19.4477 10.6641C19.7021 10.0953 19.8984 9.43431 20.0199 8.71287C20.1111 8.17192 20.16 7.59687 20.16 7.00023C20.16 3.81927 18.7632 1.24023 17.04 1.24023Z" fill="black"/>
<path d="M21.84 1.72021C21.7157 1.72021 21.5957 1.80325 21.4834 1.95781C21.408 2.06053 21.336 2.19493 21.2683 2.35765C21.2343 2.43877 21.2011 2.52709 21.1695 2.62213C21.1056 2.81173 21.0461 3.02821 20.9919 3.26677C20.8834 3.74437 20.7955 4.31365 20.7346 4.94533C20.7043 5.26117 20.6808 5.59285 20.6645 5.93653C20.6482 6.27974 20.64 6.63589 20.64 7.00021C20.64 7.36453 20.6482 7.72069 20.6645 8.06437C20.6803 8.40805 20.7039 8.73973 20.7346 9.05557C20.7955 9.68725 20.8834 10.2561 20.9919 10.7341C21.0461 10.9732 21.1056 11.1892 21.1695 11.3788C21.2011 11.4738 21.2343 11.5621 21.2683 11.6433C21.3365 11.806 21.4085 11.9404 21.4834 12.0431C21.5957 12.1972 21.7157 12.2802 21.84 12.2802C22.5029 12.2802 23.04 9.91621 23.04 7.00021C23.04 4.08421 22.5029 1.72021 21.84 1.72021Z" fill="black"/>
</svg>
