<svg width="22" height="21" viewBox="0 0 22 21" fill="none" xmlns="http://www.w3.org/2000/svg">
<path d="M21.1437 1.14529C20.7837 0.840011 20.2183 0.796331 19.6336 1.03105H19.6327C19.0178 1.27777 2.22739 8.47969 1.54387 8.77393C1.41955 8.81713 0.333789 9.22225 0.445629 10.1247C0.545469 10.9383 1.41811 11.2752 1.52467 11.3141L5.79331 12.7757C6.07651 13.7184 7.12051 17.1965 7.35139 17.9395C7.49539 18.4027 7.73011 19.0114 8.14147 19.1367C8.50243 19.2759 8.86147 19.1487 9.09379 18.9663L11.7035 16.5456L15.9165 19.8312L16.0168 19.8912C16.3029 20.0179 16.577 20.0813 16.8386 20.0813C17.0407 20.0813 17.2346 20.0434 17.4199 19.9675C18.0511 19.7083 18.3035 19.1069 18.3299 19.0387L21.4768 2.68177C21.6688 1.80817 21.4019 1.36369 21.1437 1.14529ZM9.55795 13.3603L8.11795 17.2003L6.67795 12.4003L17.7179 4.24033L9.55795 13.3603Z" fill="black"/>
</svg>
