<svg width="22" height="16" viewBox="0 0 22 16" fill="none" xmlns="http://www.w3.org/2000/svg">
<path d="M20.5527 2.95982C20.3614 1.9042 19.4501 1.13545 18.3927 0.895449C16.8102 0.559824 13.8814 0.319824 10.7127 0.319824C7.54578 0.319824 4.57016 0.559824 2.98578 0.895449C1.93016 1.13545 1.01703 1.85545 0.825781 2.95982C0.632656 4.15982 0.441406 5.83982 0.441406 7.99982C0.441406 10.1598 0.632656 11.8398 0.872656 13.0398C1.06578 14.0954 1.97703 14.8642 3.03266 15.1042C4.71266 15.4398 7.59265 15.6798 10.7614 15.6798C13.9302 15.6798 16.8102 15.4398 18.4902 15.1042C19.5458 14.8642 20.457 14.1442 20.6502 13.0398C20.8414 11.8398 21.0814 10.1111 21.1301 7.99982C21.0326 5.83982 20.7927 4.15982 20.5527 2.95982ZM8.1214 11.3598V4.63982L13.977 7.99982L8.1214 11.3598Z" fill="black"/>
</svg>
