<svg width="14" height="15" viewBox="0 0 14 15" fill="none" xmlns="http://www.w3.org/2000/svg">
<path d="M7.00004 14.1667C3.31804 14.1667 0.333374 11.182 0.333374 7.5C0.333374 3.818 3.31804 0.833328 7.00004 0.833328C10.682 0.833328 13.6667 3.818 13.6667 7.5C13.6667 11.182 10.682 14.1667 7.00004 14.1667ZM7.00004 12.8333C8.41453 12.8333 9.77108 12.2714 10.7713 11.2712C11.7715 10.271 12.3334 8.91448 12.3334 7.5C12.3334 6.08551 11.7715 4.72895 10.7713 3.72876C9.77108 2.72856 8.41453 2.16666 7.00004 2.16666C5.58555 2.16666 4.229 2.72856 3.2288 3.72876C2.22861 4.72895 1.66671 6.08551 1.66671 7.5C1.66671 8.91448 2.22861 10.271 3.2288 11.2712C4.229 12.2714 5.58555 12.8333 7.00004 12.8333ZM7.66671 7.5H10.3334V8.83333H6.33337V4.16666H7.66671V7.5Z" fill="#838897"/>
</svg>
