<svg width="168" height="32" viewBox="0 0 168 32" fill="none" xmlns="http://www.w3.org/2000/svg">
<path fill-rule="evenodd" clip-rule="evenodd" d="M45.8473 24.9443V0H48.5045V9.90646C49.1422 9.05122 49.9216 8.32665 50.8428 7.73274C51.7639 7.13883 52.9449 6.84187 54.3857 6.84187C55.6139 6.84187 56.7594 7.13883 57.8222 7.73274C58.9087 8.3029 59.7826 9.17001 60.444 10.3341C61.1289 11.4744 61.4714 12.8879 61.4714 14.5746V24.9443H58.8143V14.6459C58.8143 13.0304 58.3537 11.7357 57.4325 10.7617C56.5114 9.76392 55.3186 9.26503 53.8542 9.26503C52.8622 9.26503 51.9647 9.49072 51.1616 9.94209C50.3586 10.3935 49.7091 11.0349 49.2131 11.8664C48.7407 12.6741 48.5045 13.6125 48.5045 14.6815V24.9443H45.8473ZM85.0157 24.9442V7.12688H87.6729V11.5099C87.7673 11.2011 87.9445 10.7973 88.2043 10.2984C88.4877 9.77573 88.8893 9.25308 89.4089 8.73044C89.9285 8.2078 90.578 7.7683 91.3575 7.41196C92.1605 7.03185 93.1053 6.8418 94.1918 6.8418H94.3689V9.5144H94.05C92.7274 9.5144 91.5818 9.88263 90.6135 10.6191C89.6687 11.3318 88.9365 12.2702 88.4169 13.4342C87.9209 14.5745 87.6729 15.798 87.6729 17.1046V24.9442H85.0157ZM68.4478 24.0177C69.7941 24.8255 71.3648 25.2293 73.1599 25.2293C75.262 25.2293 76.9744 24.7304 78.297 23.7327C79.6433 22.7111 80.6235 21.4045 81.2376 19.8128H78.3325C77.8601 20.6918 77.1987 21.4164 76.3485 21.9866C75.4982 22.533 74.4471 22.8062 73.1953 22.8062C72.0143 22.8062 70.9751 22.5567 70.0776 22.0578C69.18 21.5352 68.4596 20.8463 67.9164 19.991C67.3968 19.112 67.0661 18.1499 66.9244 17.1046H81.7691V16.0356C81.7691 14.3251 81.4148 12.7809 80.7062 11.403C79.9976 10.0014 78.982 8.89674 77.6593 8.08901C76.3603 7.25754 74.8014 6.8418 72.9827 6.8418C71.1877 6.8418 69.6288 7.25754 68.3061 8.08901C66.9834 8.89674 65.9678 10.0014 65.2592 11.403C64.5507 12.7809 64.1964 14.3251 64.1964 16.0356C64.1964 17.7223 64.5625 19.2664 65.2947 20.6681C66.0505 22.0697 67.1015 23.1863 68.4478 24.0177ZM79.0056 14.6102H66.9598C67.2196 13.0898 67.8574 11.8188 68.873 10.7973C69.9122 9.77572 71.2821 9.26496 72.9827 9.26496C74.6833 9.26496 76.0532 9.77572 77.0925 10.7973C78.1317 11.8188 78.7694 13.0898 79.0056 14.6102ZM36.2045 9.47856V24.944H38.8616V9.47856H42.9359V7.12667H38.8616V0.748047H36.2045V7.12667H32.5907V9.47856H36.2045ZM26.7128 5.52966V2.77227H29.5825V5.52966H26.7128ZM26.8191 19.6728V7.05337H29.4762V19.6728H26.8191ZM30.0161 21.8043H11.9589C10.117 21.8043 8.62376 20.3026 8.62376 18.4499C8.62376 16.5973 10.1169 15.0954 11.9589 15.0954H22.79V12.3H11.959C8.58208 12.3 5.84449 15.0534 5.84449 18.4499C5.84449 21.8464 8.582 24.5999 11.9589 24.5999L28.1439 24.5997L26.681 27.1648H29.5714L32.6286 21.8044L30.0161 21.8043ZM0 5.57385L3.05719 0.0957577L5.94763 0.0957582L4.45043 2.77854H22.79V5.57396H2.22345L0 5.57385Z" fill="black"/>
<path fill-rule="evenodd" clip-rule="evenodd" d="M97.7583 1.35388L105.057 24.9441H108.068L114.41 5.13116L120.752 24.9441H123.763L131.061 1.35388H128.262L122.24 21.1668L115.933 1.35388H112.886L106.58 21.1668L100.557 1.35388H97.7583ZM138.743 25.2293C137.019 25.2293 135.507 24.8254 134.208 24.0177C132.933 23.1862 131.941 22.0697 131.232 20.6681C130.524 19.2664 130.169 17.7222 130.169 16.0355C130.169 14.3251 130.524 12.7809 131.232 11.403C131.941 10.0014 132.933 8.89671 134.208 8.08899C135.507 7.25751 137.019 6.84177 138.743 6.84177C140.207 6.84177 141.459 7.12685 142.498 7.69701C143.561 8.26716 144.423 9.03925 145.085 10.0133V7.12685H147.742V24.9442H145.085V22.0934C144.423 23.0437 143.561 23.8039 142.498 24.3741C141.459 24.9442 140.207 25.2293 138.743 25.2293ZM139.097 22.8061C140.42 22.8061 141.53 22.4973 142.428 21.8796C143.349 21.262 144.046 20.4424 144.518 19.4208C144.99 18.3756 145.226 17.2471 145.226 16.0355C145.226 14.8002 144.99 13.6718 144.518 12.6502C144.046 11.6287 143.349 10.8091 142.428 10.1914C141.53 9.57377 140.42 9.26494 139.097 9.26494C137.798 9.26494 136.676 9.57377 135.732 10.1914C134.787 10.8091 134.066 11.6287 133.57 12.6502C133.074 13.6718 132.826 14.8002 132.826 16.0355C132.826 17.2471 133.074 18.3756 133.57 19.4208C134.066 20.4424 134.787 21.262 135.732 21.8796C136.676 22.4973 137.798 22.8061 139.097 22.8061ZM154.18 32L157.404 24.6949L150.177 7.12693H153.117L158.821 21.7372L164.632 7.12693H167.537L157.05 32H154.18Z" fill="black"/>
</svg>
