<svg width="174" height="50" viewBox="0 0 174 50" fill="none" xmlns="http://www.w3.org/2000/svg">
<path d="M170.618 13.548H170.493V13.673V20.8017L161.491 30.5679V13.673V13.548H161.366H158.786H158.661V13.673V40.2524V40.3774H158.786H163.328H163.383L163.42 40.3374L170.493 32.7202V46.2956H161.491V43.1122V42.9872H161.366H158.786H158.661V43.1122V49V49.125H158.786H173.197H173.322V49V13.673V13.548H173.197H170.618ZM162.152 37.5479H161.491V34.7498L170.493 24.9837V28.484L162.152 37.5479Z" fill="#141414" stroke="black" stroke-width="0.25"/>
<path d="M151.756 13.548H151.631V13.673V18.2862L142.956 13.619L142.928 13.604H142.897H139.869H139.744V13.729V40.2524V40.3774H139.869H142.953H142.979L143.003 40.3668L151.631 36.5747V40.3085V40.4335H151.756H154.336H154.461V40.3085V13.673V13.548H154.336H151.756ZM142.573 22.6306L151.631 27.5418V33.4423L142.573 37.4804V22.6306ZM142.573 16.6295L151.631 21.4861V24.2865L142.573 19.4299V16.6295Z" fill="#141414" stroke="black" stroke-width="0.25"/>
<path d="M132.533 0.875H132.408V1V27.5038L127.616 24.0574L127.542 24.0046L127.469 24.0578L122.733 27.5022V1V0.875H122.608H119.917H119.792V1V40.2523V40.3773H119.917H122.608H122.733V40.2523V36.7272L127.543 33.229L132.408 36.7276V40.2523V40.3773H132.533H135.225H135.35V40.2523V1V0.875H135.225H132.533ZM127.616 29.9458L127.542 29.8916L127.468 29.9461L122.733 33.4438V30.7832L127.543 27.2851L132.408 30.7837V33.4455L127.616 29.9458Z" fill="#141414" stroke="black" stroke-width="0.25"/>
<path d="M109.573 13.604H109.519L109.482 13.6443L107.68 15.5963V13.673V13.548H107.555H104.975H104.85V13.673V18.6709L102.465 21.2594V13.673V13.548H102.34H99.7604H99.6354V13.673V40.3085V40.4335H99.7604H102.34H102.465V40.3085V25.4975L104.85 22.9089V40.3085V40.4335H104.975H107.555H107.68V40.3085V19.7784L110.805 16.4335H111.467V28.8692V28.9942H111.592H114.172H114.297V28.8692V13.729V13.604H114.172H109.573Z" fill="#141414" stroke="black" stroke-width="0.25"/>
<path d="M93.9819 13.7289V13.6039H93.8569H79.3896H79.2646V13.7289V40.2523V40.3773H79.3896H93.8569H93.9819V40.2523V37.6728V37.5478H93.8569H82.0941V34.4361L93.92 27.5191L93.9819 27.4829V27.4112V13.7289ZM91.0964 19.6574L82.0941 24.9497V16.4334H91.0964V19.6574ZM91.0964 22.9743V25.8813L82.0941 31.1191V28.212L91.0964 22.9743Z" fill="#141414" stroke="black" stroke-width="0.25"/>
<path d="M68.3403 13.604H68.2856L68.2484 13.6442L66.4466 15.5962V4.98132V4.85632H66.3216H63.7422H63.6172V4.98132V18.6708L61.2317 21.2593V4.98132V4.85632H61.1067H58.5272H58.4022V4.98132V40.3084V40.4334H58.5272H61.1067H61.2317V40.3084V25.4974L69.5727 16.4334H70.234V40.3084V40.4334H70.359H72.9384H73.0634V40.3084V13.729V13.604H72.9384H68.3403Z" fill="#141414" stroke="black" stroke-width="0.25"/>
<path d="M38.7355 16.3083V16.4333H38.8605H41.3149V18.931H38.8605H38.7355V19.056V21.6354V21.7604H38.8605H41.3149V40.2522V40.3772H41.4399H53.2717H53.3967V40.2522V28.813V28.688H53.2717H50.6922H50.5672V28.813V37.4917H44.2004V21.7604H53.2717H53.3967V21.6354V19.056V18.931H53.2717H44.2004V16.4333H53.2717H53.3967V16.3083V13.7289V13.6039H53.2717H44.2004V4.92517V4.80017H44.0754H41.4399H41.3149V4.92517V13.6039H38.8605H38.7355V13.7289V16.3083Z" fill="#141414" stroke="black" stroke-width="0.25"/>
<path d="M35.4171 35.0502H35.5421V34.9252V32.3458V32.2208H35.4171H29.6542V13.729V13.604H29.5292H21.0059H20.8809V13.729V16.3084V16.4334H21.0059H26.7687V32.2208H21.0059H20.8809V32.3458V34.9252V35.0502H21.0059H26.7687V37.5479H21.0059H20.8809V37.6729V40.2523V40.3773H21.0059H35.4171H35.5421V40.2523V37.6729V37.5479H35.4171H29.6542V35.0502H35.4171ZM29.4731 9.76052H29.5981V9.63552V4.98132V4.85632H29.4731H26.8937H26.7687V4.98132V9.63552V9.76052H26.8937H29.4731Z" fill="#141414" stroke="black" stroke-width="0.25"/>
<path d="M15.2139 3.59229H15.3389V3.46729V1V0.875H15.2139H0.802734H0.677734V1V14.3458V14.4708H0.802734H8.02145L0.758753 17.2007L0.677734 17.2312V17.3177V40.2523V40.3773H0.802734H15.2139H15.3389V40.2523V37.8411V37.7161H15.2139H8.94642V16.9556L15.258 14.5749L15.3389 14.5444V14.4579V11.9346V11.8096H15.2139H3.61932V3.59229H15.2139ZM3.61932 18.9738L6.00483 18.0602V37.7161H3.61932V18.9738Z" fill="#141414" stroke="black" stroke-width="0.25"/>
</svg>
