<svg width="24" height="24" viewBox="0 0 24 24" fill="none" xmlns="http://www.w3.org/2000/svg">
<g clip-path="url(#clip0_0_2106)">
<mask id="mask0_0_2106" style="mask-type:alpha" maskUnits="userSpaceOnUse" x="0" y="0" width="24" height="24">
<path d="M0 6.10352e-05H24V24H0V6.10352e-05Z" fill="white"/>
</mask>
<g mask="url(#mask0_0_2106)">
<path fill-rule="evenodd" clip-rule="evenodd" d="M12 6.10352e-05C18.6275 6.10352e-05 24 5.37252 24 12.0001C24 18.6271 18.6275 24.0001 12 24.0001C5.37245 24.0001 0 18.6271 0 12.0001C0 5.37252 5.37245 6.10352e-05 12 6.10352e-05Z" fill="#2775CA"/>
</g>
<path fill-rule="evenodd" clip-rule="evenodd" d="M9.75042 20.3433C9.75042 20.6255 9.52938 20.7859 9.25638 20.7007C5.62815 19.5432 2.99756 16.1411 2.99756 12.1268C2.99756 8.11268 5.62815 4.7104 9.25638 3.55295C9.52938 3.46827 9.75042 3.62809 9.75042 3.91036V4.60718C9.75042 4.79509 9.60479 5.01627 9.42574 5.07749C6.55515 6.13159 4.49879 8.88927 4.49879 12.122C4.49879 15.3548 6.55515 18.113 9.42574 19.1666C9.60479 19.2326 9.75042 19.4489 9.75042 19.6374V20.3433Z" fill="white"/>
<path fill-rule="evenodd" clip-rule="evenodd" d="M12.7483 17.7502C12.7483 17.9575 12.579 18.1269 12.372 18.1269H11.6236C11.4166 18.1269 11.2472 17.9575 11.2472 17.7502V16.5646C9.6095 16.3435 8.80973 15.4256 8.59318 14.1787C8.55541 13.9667 8.72478 13.7739 8.94132 13.7739H9.79782C9.97659 13.7739 10.1273 13.9011 10.1649 14.0796C10.325 14.8232 10.7532 15.3926 12.066 15.3926C13.0354 15.3926 13.7226 14.8514 13.7226 14.0424C13.7226 13.2326 13.3178 12.9269 11.8966 12.6914C9.79782 12.4091 8.80496 11.7737 8.80496 10.1267C8.80496 8.85619 9.76509 7.8681 11.252 7.65619V6.49382C11.252 6.28669 11.4215 6.11719 11.6284 6.11719H12.3767C12.5837 6.11719 12.7531 6.28669 12.7531 6.49382V7.68919C13.9625 7.90601 14.7295 8.5926 14.9791 9.73137C15.026 9.94819 14.8566 10.1501 14.6356 10.1501H13.8448C13.6755 10.1501 13.5343 10.0371 13.4826 9.87251C13.2709 9.14814 12.7531 8.83764 11.8542 8.83764C10.8613 8.83764 10.3483 9.31751 10.3483 9.99032C10.3483 10.7009 10.6403 11.0583 12.1651 11.2799C14.226 11.5622 15.2897 12.1503 15.2897 13.906C15.2897 15.2376 14.3014 16.3153 12.7531 16.5646V17.7502H12.7483Z" fill="white"/>
<path fill-rule="evenodd" clip-rule="evenodd" d="M14.7436 20.7007C14.4708 20.7859 14.2495 20.6255 14.2495 20.3433V19.647C14.2495 19.4399 14.3766 19.247 14.5742 19.1761C17.4448 18.122 19.5011 15.3644 19.5011 12.1316C19.5011 8.89882 17.4448 6.14114 14.5742 5.08705C14.3954 5.02105 14.2495 4.80478 14.2495 4.61618V3.91991C14.2495 3.63764 14.4708 3.47305 14.7436 3.56196C18.3718 4.72009 21.0024 8.12223 21.0024 12.1364C20.9979 16.141 18.3718 19.5385 14.7436 20.7007Z" fill="white"/>
</g>
<defs>
<clipPath id="clip0_0_2106">
<rect width="24" height="24" fill="white"/>
</clipPath>
</defs>
</svg>
