<svg width="92" height="60" viewBox="0 0 92 60" fill="none" xmlns="http://www.w3.org/2000/svg">
<path d="M18.4088 22.1975L12.6038 0.241211H8.50375L18.4088 37.705V52.0025L4.725 0.241211H0.625L16.3587 59.7562H18.4088H20.4575H22.5075V0.241211H18.4088V22.1975Z" fill="black"/>
<path d="M91.3798 59.7562L75.6461 0.241211H73.5961H71.5461H69.4961V59.755H73.5961L84.4173 48.9287L87.2798 59.755H91.3798V59.7562ZM80.7798 35.165L73.5973 42.3475V7.99496L80.7798 35.165ZM73.5961 53.9537V48.145L81.9911 39.75L83.2061 44.3437L73.5961 53.9537Z" fill="black"/>
<path d="M31.1469 0.241211H29.0969H27.0469V59.755H31.1469L41.9681 48.9287L44.8306 59.755H48.9306L33.1956 0.241211H31.1469ZM38.3294 35.165L31.1469 42.3475V7.99496L38.3294 35.165ZM31.1469 53.9537V48.145L39.5419 39.75L40.7569 44.3437L31.1469 53.9537Z" fill="black"/>
<path d="M65.9494 37.0137L56.2281 0.241211H54.1781H52.1281H50.0781V59.755H54.1781V48.7187L57.9444 44.9525L61.8581 59.755L65.9494 59.725L61.1869 41.71L62.6931 40.2037L65.9494 37.0137ZM54.1781 42.9212V7.99496L61.4806 35.6187L54.1781 42.9212Z" fill="black"/>
</svg>
