<svg width="16" height="16" viewBox="0 0 16 16" fill="none" xmlns="http://www.w3.org/2000/svg">
<path d="M7.12875 14.6287C6.73712 14.2371 6.73839 13.6018 7.13157 13.2117L11.125 9.25H1.5C0.947718 9.25 0.500003 8.80229 0.500003 8.25V7.75C0.500003 7.19772 0.947718 6.75 1.5 6.75H11.125L7.13157 2.78828C6.73839 2.39822 6.73712 1.76288 7.12875 1.37125L7.29289 1.20711C7.68342 0.816583 8.31658 0.816583 8.70711 1.20711L15.1464 7.64645C15.3417 7.84171 15.3417 8.15829 15.1464 8.35355L8.70711 14.7929C8.31658 15.1834 7.68342 15.1834 7.29289 14.7929L7.12875 14.6287Z" fill="#00FFC4"/>
</svg>
