<svg width="110" height="22" viewBox="0 0 110 22" fill="none" xmlns="http://www.w3.org/2000/svg">
<path fill-rule="evenodd" clip-rule="evenodd" d="M30.1021 16.8697V0.5H31.8467V7.00111C32.2654 6.43987 32.7771 5.96437 33.3819 5.57461C33.9867 5.18486 34.7621 4.98998 35.7081 4.98998C36.5145 4.98998 37.2666 5.18486 37.9645 5.57461C38.6778 5.94878 39.2516 6.51782 39.6858 7.28174C40.1355 8.03007 40.3604 8.95768 40.3604 10.0646V16.8697H38.6158V10.1114C38.6158 9.05122 38.3134 8.20156 37.7086 7.56236C37.1038 6.90757 36.3206 6.58018 35.3592 6.58018C34.7078 6.58018 34.1186 6.72828 33.5913 7.0245C33.064 7.32071 32.6376 7.74165 32.3119 8.28731C32.0018 8.81737 31.8467 9.43318 31.8467 10.1347V16.8697H30.1021ZM55.8189 16.8697V5.17701H57.5635V8.0534C57.6256 7.85073 57.7419 7.5857 57.9125 7.2583C58.0985 6.91532 58.3622 6.57234 58.7034 6.22935C59.0445 5.88637 59.471 5.59795 59.9827 5.3641C60.51 5.11465 61.1303 4.98993 61.8437 4.98993H61.96V6.74383H61.7506C60.8822 6.74383 60.1301 6.98548 59.4942 7.46877C58.8739 7.93648 58.3932 8.55229 58.052 9.31621C57.7264 10.0645 57.5635 10.8674 57.5635 11.7249V16.8697H55.8189ZM44.9409 16.2616C45.8249 16.7917 46.8561 17.0567 48.0347 17.0567C49.4149 17.0567 50.5392 16.7293 51.4076 16.0746C52.2916 15.4042 52.9351 14.5467 53.3383 13.5022H51.4309C51.1207 14.079 50.6865 14.5545 50.1282 14.9287C49.57 15.2873 48.8799 15.4665 48.058 15.4665C47.2826 15.4665 46.6003 15.3028 46.011 14.9755C45.4217 14.6325 44.9487 14.1804 44.592 13.6191C44.2508 13.0423 44.0337 12.4109 43.9407 11.7249H53.6873V11.0233C53.6873 9.90084 53.4547 8.88748 52.9894 7.98325C52.5242 7.06343 51.8574 6.33848 50.9889 5.80841C50.136 5.26276 49.1125 4.98993 47.9184 4.98993C46.7398 4.98993 45.7163 5.26276 44.8479 5.80841C43.9794 6.33848 43.3126 7.06343 42.8474 7.98325C42.3822 8.88748 42.1495 9.90084 42.1495 11.0233C42.1495 12.1302 42.3899 13.1436 42.8706 14.0634C43.3669 14.9832 44.057 15.716 44.9409 16.2616ZM51.8729 10.0879H43.9639C44.1345 9.09015 44.5532 8.25608 45.2201 7.5857C45.9024 6.91532 46.8018 6.58013 47.9184 6.58013C49.035 6.58013 49.9344 6.91532 50.6167 7.5857C51.2991 8.25608 51.7178 9.09015 51.8729 10.0879ZM23.7708 6.7203V16.8695H25.5154V6.7203H28.1905V5.17687H25.5154V0.990906H23.7708V5.17687H21.3982V6.7203H23.7708ZM17.5388 4.12884V2.3193H19.423V4.12884H17.5388ZM17.6086 13.4103V5.12877H19.3533V13.4103H17.6086ZM19.7077 14.8091H7.85188C6.64252 14.8091 5.66212 13.8236 5.66212 12.6078C5.66212 11.392 6.6425 10.4064 7.85186 10.4064H14.9633V8.57188H7.85191C5.63475 8.57188 3.83733 10.3788 3.83733 12.6078C3.83733 14.8367 5.6347 16.6437 7.85186 16.6437L18.4785 16.6436L17.518 18.3269H19.4158L21.423 14.8091L19.7077 14.8091ZM0 4.15784L2.00727 0.562841L3.90504 0.562841L2.92203 2.32342H14.9633V4.15791H1.45986L0 4.15784Z" fill="white"/>
<path fill-rule="evenodd" clip-rule="evenodd" d="M64.1855 1.3885L68.9774 16.8696H70.9547L75.1185 3.86734L79.2823 16.8696H81.2595L86.0514 1.3885H84.2137L80.2593 14.3907L76.1187 1.3885H74.1182L69.9777 14.3907L66.0232 1.3885H64.1855ZM91.0949 17.0567C89.9629 17.0567 88.9704 16.7917 88.1175 16.2616C87.2801 15.716 86.6287 14.9832 86.1635 14.0634C85.6983 13.1436 85.4657 12.1302 85.4657 11.0233C85.4657 9.90084 85.6983 8.88748 86.1635 7.98325C86.6287 7.06342 87.2801 6.33848 88.1175 5.80841C88.9704 5.26276 89.9629 4.98993 91.0949 4.98993C92.0564 4.98993 92.8783 5.17701 93.5607 5.55118C94.2585 5.92534 94.8246 6.43202 95.2588 7.07122V5.17701H97.0034V16.8697H95.2588V14.9988C94.8246 15.6224 94.2585 16.1213 93.5607 16.4955C92.8783 16.8697 92.0564 17.0567 91.0949 17.0567ZM91.3276 15.4665C92.196 15.4665 92.9249 15.2639 93.5141 14.8585C94.1189 14.4532 94.5764 13.9153 94.8866 13.2449C95.1967 12.559 95.3518 11.8184 95.3518 11.0233C95.3518 10.2126 95.1967 9.47211 94.8866 8.80173C94.5764 8.13135 94.1189 7.59349 93.5141 7.18815C92.9249 6.7828 92.196 6.58013 91.3276 6.58013C90.4746 6.58013 89.738 6.7828 89.1177 7.18815C88.4974 7.59349 88.0244 8.13135 87.6988 8.80173C87.3731 9.47211 87.2103 10.2126 87.2103 11.0233C87.2103 11.8184 87.3731 12.559 87.6988 13.2449C88.0244 13.9153 88.4974 14.4532 89.1177 14.8585C89.738 15.2639 90.4746 15.4665 91.3276 15.4665ZM101.231 21.5L103.347 16.706L98.602 5.17706H100.533L104.278 14.765L108.093 5.17706H110L103.115 21.5H101.231Z" fill="white"/>
</svg>
