<svg width="24" height="24" viewBox="0 0 24 24" fill="none" xmlns="http://www.w3.org/2000/svg">
<g clip-path="url(#clip0_2001_2)">
<circle cx="12" cy="12" r="11.525" fill="#00FFC8" stroke="#282138" stroke-width="0.95"/>
<path d="M19.5696 5.03666L18.9111 5.69511C20.4834 7.41477 21.3553 9.66051 21.3553 11.9906C21.3553 14.3207 20.4834 16.5664 18.9111 18.2861L19.5696 18.9445C21.3174 17.0478 22.2877 14.563 22.2877 11.9838C22.2877 9.40456 21.3174 6.91973 19.5696 5.02303V5.03666Z" fill="#5A5564"/>
<path d="M5.7111 5.09404C7.43066 3.52156 9.67644 2.64953 12.0066 2.64953C14.3367 2.64953 16.5825 3.52156 18.3021 5.09404L18.9605 4.43559C17.0637 2.68686 14.5783 1.71599 11.9984 1.71599C9.41844 1.71599 6.93301 2.68686 5.03619 4.43559L5.7111 5.09404Z" fill="#5A5564"/>
<path d="M5.09405 18.2955C3.52333 16.5764 2.65238 14.3319 2.65238 12.0033C2.65238 9.67466 3.52333 7.43023 5.09405 5.71111L4.4356 5.05266C2.68687 6.94947 1.716 9.43491 1.716 12.0148C1.716 14.5947 2.68687 17.0802 4.4356 18.977L5.09405 18.2955Z" fill="#5A5564"/>
<path d="M18.2955 18.9017C16.5759 20.4742 14.3301 21.3462 12 21.3462C9.66986 21.3462 7.42408 20.4742 5.70452 18.9017L5.04607 19.5602C6.94289 21.3089 9.42832 22.2798 12.0082 22.2798C14.5881 22.2798 17.0736 21.3089 18.9704 19.5602L18.2955 18.9017Z" fill="#5A5564"/>
<path d="M16.1602 9.80101C16.0285 8.42626 14.8433 7.96676 13.3421 7.82566V5.93074H12.1813V7.78898H11.2552V5.93074H10.1044V7.83742H7.75277V9.07719C7.75277 9.07719 8.60922 9.06167 8.59605 9.07719C8.75039 9.06033 8.90526 9.104 9.02806 9.19899C9.15087 9.29399 9.23204 9.43292 9.2545 9.58654V14.8071C9.24726 14.9164 9.19691 15.0183 9.11453 15.0904C9.03215 15.1626 8.92449 15.1991 8.81522 15.1918C8.83074 15.205 7.97194 15.1918 7.97194 15.1918L7.7523 16.5779H10.0827V18.5151H11.2407V16.6061H12.1677V18.5062H13.3298V16.591C15.2892 16.472 16.6555 15.989 16.8267 14.1548C16.9649 12.6789 16.2707 12.0195 15.1617 11.7561C15.8376 11.4222 16.2548 10.807 16.1602 9.80101ZM14.5329 13.9262C14.5329 15.3673 12.0642 15.2026 11.2778 15.2026V12.646C12.0661 12.6479 14.5329 12.4216 14.5329 13.9262ZM13.9967 10.324C13.9967 11.6409 11.9363 11.4815 11.2816 11.4815V9.15761C11.9363 9.15761 13.9967 8.95114 13.9967 10.324Z" fill="black"/>
</g>
<defs>
<clipPath id="clip0_2001_2">
<rect width="24" height="24" fill="white"/>
</clipPath>
</defs>
</svg>
