<svg width="14" height="14" viewBox="0 0 14 14" fill="none" xmlns="http://www.w3.org/2000/svg">
<path fill-rule="evenodd" clip-rule="evenodd" d="M6.99758 13.665C10.6799 13.665 13.6651 10.6798 13.6651 6.99746C13.6651 3.3151 10.6799 0.329956 6.99758 0.329956C3.31522 0.329956 0.330078 3.3151 0.330078 6.99746C0.330078 10.6798 3.31522 13.665 6.99758 13.665ZM6.99512 3.70496C6.64994 3.70496 6.37012 3.98478 6.37012 4.32996C6.37012 4.67513 6.64994 4.95496 6.99512 4.95496C7.3403 4.95496 7.62017 4.67513 7.62017 4.32996C7.62017 3.98478 7.3403 3.70496 6.99512 3.70496ZM7.62012 6.99662C7.62012 6.65145 7.3403 6.37162 6.99512 6.37162C6.64994 6.37162 6.37012 6.65145 6.37012 6.99662V9.66329C6.37012 10.0085 6.64994 10.2883 6.99512 10.2883C7.3403 10.2883 7.62012 10.0085 7.62012 9.66329V6.99662Z" fill="#FDD87C"/>
</svg>
