<svg width="24" height="24" viewBox="0 0 24 24" fill="none" xmlns="http://www.w3.org/2000/svg">
<g clip-path="url(#clip0_2002_16)">
<path d="M19.5696 5.03668L18.9111 5.69513C20.4834 7.41478 21.3553 9.66053 21.3553 11.9906C21.3553 14.3207 20.4834 16.5664 18.9111 18.2861L19.5696 18.9445C21.3174 17.0478 22.2877 14.563 22.2877 11.9838C22.2877 9.40457 21.3174 6.91974 19.5696 5.02304V5.03668Z" fill="#5A5564"/>
<path d="M5.7111 5.09405C7.43066 3.52158 9.67644 2.64955 12.0066 2.64955C14.3367 2.64955 16.5825 3.52158 18.3021 5.09405L18.9605 4.43561C17.0637 2.68688 14.5783 1.716 11.9984 1.716C9.41844 1.716 6.93301 2.68688 5.03619 4.43561L5.7111 5.09405Z" fill="#5A5564"/>
<path d="M5.09405 18.2955C3.52334 16.5763 2.65239 14.3319 2.65239 12.0033C2.65239 9.67465 3.52334 7.43021 5.09405 5.71109L4.43561 5.05264C2.68688 6.94946 1.716 9.43489 1.716 12.0148C1.716 14.5947 2.68688 17.0801 4.43561 18.977L5.09405 18.2955Z" fill="#5A5564"/>
<path d="M18.2955 18.9017C16.5759 20.4742 14.3302 21.3462 12 21.3462C9.66987 21.3462 7.42409 20.4742 5.70453 18.9017L5.04608 19.5602C6.94289 21.3089 9.42833 22.2798 12.0082 22.2798C14.5882 22.2798 17.0736 21.3089 18.9704 19.5602L18.2955 18.9017Z" fill="#5A5564"/>
<path d="M16.1602 9.80103C16.0285 8.42628 14.8433 7.96677 13.3421 7.82568V5.93076H12.1813V7.78899H11.2552V5.93076H10.1044V7.83744H7.75276V9.0772C7.75276 9.0772 8.60921 9.06168 8.59604 9.0772C8.75039 9.06035 8.90525 9.10401 9.02805 9.19901C9.15086 9.29401 9.23203 9.43293 9.25449 9.58656V14.8071C9.24725 14.9164 9.1969 15.0183 9.11452 15.0904C9.03214 15.1626 8.92448 15.1991 8.81521 15.1918C8.83073 15.205 7.97193 15.1918 7.97193 15.1918L7.75229 16.5779H10.0827V18.5151H11.2407V16.6061H12.1677V18.5062H13.3298V16.591C15.2892 16.4721 16.6555 15.989 16.8267 14.1548C16.9649 12.6789 16.2707 12.0195 15.1617 11.7561C15.8376 11.4222 16.2547 10.807 16.1602 9.80103ZM14.5329 13.9262C14.5329 15.3673 12.0642 15.2027 11.2778 15.2027V12.646C12.0661 12.6479 14.5329 12.4217 14.5329 13.9262ZM13.9967 10.324C13.9967 11.6409 11.9363 11.4815 11.2816 11.4815V9.15763C11.9363 9.15763 13.9967 8.95116 13.9967 10.324Z" fill="#F09242"/>
<path d="M11.9979 24C5.37059 23.9986 0 18.6247 0 11.9979C0 5.37106 5.37483 0 12.0021 0C18.6294 0 23.9986 5.372 24 11.9979C24.0014 18.6238 18.6294 23.9986 12.0021 24H11.9979ZM11.9979 0.935938C5.89077 0.940642 0.945345 5.895 0.949107 12.0021C0.95287 18.1092 5.90817 23.0547 12.0153 23.0509C18.1224 23.0471 23.0617 18.0994 23.0641 11.9984C23.0664 5.89735 18.1177 0.940642 12.0111 0.935938H11.9979Z" fill="#282138"/>
</g>
<defs>
<clipPath id="clip0_2002_16">
<rect width="24" height="24" fill="white"/>
</clipPath>
</defs>
</svg>
