<svg width="15" height="15" viewBox="0 0 15 15" fill="none" xmlns="http://www.w3.org/2000/svg">
<path d="M3.91663 3V0.75C3.91663 0.551088 3.99564 0.360322 4.1363 0.21967C4.27695 0.0790176 4.46771 0 4.66663 0H13.6666C13.8655 0 14.0563 0.0790176 14.197 0.21967C14.3376 0.360322 14.4166 0.551088 14.4166 0.75V11.25C14.4166 11.4489 14.3376 11.6397 14.197 11.7803C14.0563 11.921 13.8655 12 13.6666 12H11.4166V14.25C11.4166 14.664 11.0791 15 10.6614 15H1.67188C1.57297 15.0006 1.47492 14.9816 1.38337 14.9442C1.29181 14.9068 1.20855 14.8517 1.13837 14.782C1.06819 14.7123 1.01247 14.6294 0.974417 14.5381C0.936363 14.4468 0.916723 14.3489 0.916626 14.25L0.918876 3.75C0.918876 3.336 1.25638 3 1.67413 3H3.91663ZM2.41888 4.5L2.41663 13.5H9.91663V4.5H2.41888ZM5.41663 3H11.4166V10.5H12.9166V1.5H5.41663V3Z" fill="#13BC9D"/>
</svg>
