<svg width="12" height="20" viewBox="0 0 12 20" fill="none" xmlns="http://www.w3.org/2000/svg">
<path d="M0.80729 5.78685C0.750441 5.64983 0.735507 5.49902 0.764377 5.3535C0.793246 5.20799 0.864622 5.0743 0.969477 4.96935L5.46948 0.469355C5.53913 0.399622 5.62185 0.344303 5.7129 0.30656C5.80395 0.268816 5.90154 0.24939 6.0001 0.24939C6.09866 0.24939 6.19626 0.268816 6.28731 0.30656C6.37836 0.344303 6.46107 0.399622 6.53073 0.469355L11.0307 4.96935C11.1357 5.07425 11.2073 5.20794 11.2362 5.3535C11.2652 5.49906 11.2504 5.64996 11.1936 5.78707C11.1368 5.92419 11.0405 6.04137 10.9171 6.12377C10.7936 6.20617 10.6485 6.2501 10.5001 6.24998H1.5001C1.35177 6.24995 1.20677 6.20593 1.08345 6.1235C0.960134 6.04106 0.864028 5.92391 0.80729 5.78685ZM10.5001 13.75H1.5001C1.35168 13.7499 1.20656 13.7938 1.08312 13.8762C0.959671 13.9586 0.86345 14.0758 0.806635 14.2129C0.749821 14.35 0.734968 14.5009 0.763955 14.6465C0.792943 14.792 0.864469 14.9257 0.969477 15.0306L5.46948 19.5306C5.53913 19.6003 5.62185 19.6557 5.7129 19.6934C5.80395 19.7311 5.90154 19.7506 6.0001 19.7506C6.09866 19.7506 6.19626 19.7311 6.28731 19.6934C6.37836 19.6557 6.46107 19.6003 6.53073 19.5306L11.0307 15.0306C11.1357 14.9257 11.2073 14.792 11.2362 14.6465C11.2652 14.5009 11.2504 14.35 11.1936 14.2129C11.1368 14.0758 11.0405 13.9586 10.9171 13.8762C10.7936 13.7938 10.6485 13.7499 10.5001 13.75Z" fill="#343330"/>
</svg>
