<svg width="20" height="20" viewBox="0 0 20 20" fill="none" xmlns="http://www.w3.org/2000/svg">
<path fill-rule="evenodd" clip-rule="evenodd" d="M19.7861 5.47778L16.0205 0.141221C15.8874 -0.0473991 15.5876 -0.0473991 15.4545 0.141221L11.6889 5.47778C11.5429 5.68458 11.7041 5.95808 11.9718 5.95808H14.7826C14.7453 6.05538 14.725 6.15998 14.725 6.26898V14.0414C14.725 15.0716 13.8183 15.9068 12.6999 15.9068H11.3499C10.7907 15.9068 10.3374 16.3244 10.3374 16.8395C10.3374 17.3546 10.7907 17.7722 11.3499 17.7722H12.6999C14.9367 17.7722 16.75 16.1019 16.75 14.0414V6.26898C16.75 6.15998 16.7297 6.05538 16.6924 5.95808H19.5031C19.7709 5.95808 19.932 5.68458 19.7861 5.47778ZM7.29994 4.09268C6.18154 4.09268 5.27494 4.92788 5.27494 5.95808V13.7305C5.27494 13.8395 5.25464 13.9442 5.21724 14.0414H8.02804C8.29584 14.0414 8.45694 14.3149 8.31104 14.5218L4.54534 19.8583C4.41224 20.0469 4.11254 20.0469 3.97944 19.8583L0.213773 14.5218C0.0678333 14.3149 0.228963 14.0414 0.496753 14.0414H3.30754C3.27014 13.9442 3.24984 13.8395 3.24984 13.7305V5.95808C3.24984 3.89768 5.06314 2.22735 7.29994 2.22735H8.64994C9.20914 2.22735 9.66244 2.64493 9.66244 3.16008C9.66244 3.67518 9.20914 4.09268 8.64994 4.09268H7.29994Z" fill="black"/>
</svg>
